Coordinates
version=1
nRows=26
nColumns=24
inDegrees=yes

Units are S.I. units (second, meters, Newtons, ...)
Angles are in degrees.

endheader
time	pelvis_tilt	pelvis_list	pelvis_rotation	pelvis_tx	pelvis_ty	pelvis_tz	hip_flexion_r	hip_adduction_r	hip_rotation_r	knee_angle_r	ankle_angle_r	subtalar_angle_r	mtp_angle_r	hip_flexion_l	hip_adduction_l	hip_rotation_l	knee_angle_l	ankle_angle_l	subtalar_angle_l	mtp_angle_l	lumbar_extension	lumbar_bending	lumbar_rotation
      0.47100000	     -4.13631498	      4.41850096	     -0.91325216	     -0.80760480	      1.05143097	      0.31138177	     27.52819155	     -0.35051480	     -6.76041985	     -3.89545350	      6.52965933	     -2.15205848	      0.01851501	     -6.78433880	      8.68408361	     -4.40283634	    -10.35677805	     13.39068199	      6.40452869	      0.06635410	      8.05049165	     -3.52476736	     -1.80937134
      0.47516667	     -4.15264345	      4.41681848	     -0.87087881	     -0.80161318	      1.05099866	      0.31138760	     27.45114236	     -0.30210420	     -6.63567341	     -4.05841748	      6.53480075	     -2.16984890	      0.01698032	     -6.90212231	      8.64268599	     -4.41529956	    -10.79736383	     13.37301127	      6.35652119	      0.04591413	      8.17430812	     -3.47369889	     -1.85064269
      0.47933333	     -4.15915795	      4.40302183	     -0.83735700	     -0.79555612	      1.05059305	      0.31141396	     27.36620107	     -0.24025321	     -6.48396516	     -4.29005726	      6.54046002	     -2.17161573	      0.01659732	     -7.01643073	      8.58111093	     -4.42808459	    -11.27158008	     13.32727500	      6.36115871	      0.02922817	      8.27204943	     -3.43582987	     -1.88546766
      0.48350000	     -4.15469874	      4.35746675	     -0.90048122	     -0.78929855	      1.05019752	      0.31182755	     27.22676746	     -0.07680463	     -5.96511633	     -4.50310412	      6.65510374	     -2.27295948	      0.01461818	     -7.12447170	      8.45586606	     -4.75533427	    -11.77726009	     13.14392215	      6.69280443	     -0.05516488	      8.36271820	     -3.42698953	     -2.07709197
      0.48766667	     -4.11672456	      4.37876740	     -0.87416374	     -0.78329871	      1.04987066	      0.31179417	     27.12660613	     -0.06306570	     -5.84483788	     -4.87056071	      6.61201643	     -2.29562877	      0.01433024	     -7.22839066	      8.42756150	     -4.76426808	    -12.35550252	     13.09528470	      6.76280287	     -0.06795013	      8.44216341	     -3.38837356	     -2.09418438
      0.49183333	     -4.01616294	      4.34480506	     -0.96867627	     -0.77715852	      1.04962298	      0.31251489	     26.89742875	      0.12321037	     -5.20285698	     -5.15610354	      6.44395451	     -2.91544639	      0.00964574	     -7.35515722	      8.26854749	     -5.29456511	    -13.02735997	     13.14244770	      7.85298975	     -0.23788945	      8.38521780	     -3.42769568	     -2.25533423
      0.49600000	     -3.97595910	      4.34021387	     -0.91098814	     -0.77105004	      1.04936956	      0.31246452	     26.76941507	      0.14613506	     -5.04867382	     -5.55128456	      6.37859497	     -2.89418468	      0.01087022	     -7.40858700	      8.18668145	     -5.29985863	    -13.71935069	     13.04301696	      7.88740535	     -0.24692991	      8.45007122	     -3.38259342	     -2.25633634
      0.50016667	     -3.95544630	      4.32230338	     -0.91828649	     -0.76488756	      1.04907364	      0.31283432	     26.64343215	      0.24762962	     -4.65778708	     -5.91906950	      6.14753624	     -2.95777043	      0.01532332	     -7.38701153	      8.04600405	     -5.63167763	    -14.49852022	     12.65597858	      8.35663070	     -0.27908819	      8.32243601	     -3.41192166	     -2.28399186
      0.50433333	     -3.80228700	      4.27742267	     -1.02338876	     -0.75867837	      1.04896304	      0.31352035	     26.34722353	      0.43223784	     -4.00902969	     -6.24203077	      5.82462358	     -3.72494932	      0.03307161	     -7.49168850	      7.85677153	     -6.07456076	    -15.32386689	     12.65103527	      9.36077258	     -0.32986182	      8.39052300	     -3.38668179	     -2.26670282
      0.50850000	     -3.72794843	      4.27454432	     -0.98320001	     -0.75258686	      1.04879524	      0.31348887	     26.18754662	      0.44965054	     -3.86795863	     -6.68999320	      5.72559237	     -3.70471920	      0.03559838	     -7.47222635	      7.75212135	     -6.11192569	    -16.22360599	     12.51417232	      9.40111353	     -0.33211695	      8.43858824	     -3.30973727	     -2.26928776
      0.51266667	     -3.63375761	      4.21279846	     -1.05406388	     -0.74632814	      1.04866463	      0.31418221	     25.94685956	      0.63549563	     -3.32764689	     -7.00893243	      5.15131314	     -4.15542390	      0.05703521	     -7.43111765	      7.51016032	     -6.57852848	    -17.18084022	     11.97845035	     10.34711499	     -0.31857625	      8.37678902	     -3.35352567	     -2.26694603
      0.51683333	     -3.54294310	      4.20395951	     -1.03309001	     -0.74026138	      1.04855476	      0.31418770	     25.76935410	      0.66026789	     -3.19890869	     -7.46719106	      5.04825492	     -4.16361365	      0.06023732	     -7.34824062	      7.38147533	     -6.64368514	    -18.22975631	     11.84539369	     10.39719635	     -0.31519137	      8.40565693	     -3.24257810	     -2.27408314
      0.52100000	     -3.49422609	      4.17823144	     -1.13397223	     -0.73416093	      1.04833794	      0.31484487	     25.63012234	      0.80860984	     -2.80176337	     -7.87371812	      4.36932991	     -4.65444226	      0.07625882	     -7.16303272	      7.17226275	     -7.08984808	    -19.33494348	     11.14731881	     11.36694246	     -0.26915572	      8.25585487	     -3.19227476	     -2.29465061
      0.52516667	     -3.37990885	      4.03676759	     -1.13039844	     -0.72783321	      1.04833854	      0.31560596	     25.30522717	      1.05007164	     -2.23565134	     -8.10773132	      3.79435678	     -5.60499219	      0.11830361	     -7.02803367	      6.78213415	     -7.46147776	    -20.54948892	     10.89956584	     12.24914522	     -0.13632819	      8.29006105	     -3.14518110	     -2.25906488
      0.52933333	     -3.32413017	      4.00779404	     -1.17018553	     -0.72183683	      1.04817852	      0.31589413	     25.17511241	      1.13285398	     -2.06859282	     -8.56697952	      3.42217870	     -5.81028739	      0.14078100	     -6.76762458	      6.58033185	     -7.66550719	    -21.82057994	     10.43012087	     12.62489924	     -0.06929020	      8.17997977	     -3.00430303	     -2.26652577
      0.53350000	     -3.23090001	      3.90626076	     -1.17553778	     -0.71567999	      1.04814606	      0.31633854	     24.94138682	      1.29210330	     -1.80597667	     -8.91936256	      2.91430861	     -6.20840005	      0.16974949	     -6.52237332	      6.25785299	     -7.88847500	    -23.14441651	      9.78727734	     13.24409617	      0.03682110	      8.16231680	     -2.90407945	     -2.25936539
      0.53766667	     -3.16794884	      3.80865376	     -1.19189258	     -0.70959260	      1.04804924	      0.31678776	     24.75364394	      1.44773919	     -1.55876642	     -9.29611753	      2.45078730	     -6.66094734	      0.20079826	     -6.19658780	      5.93484429	     -8.08892991	    -24.54602736	      9.20663489	     13.78967180	      0.16347401	      8.12463301	     -2.76300989	     -2.25643114
      0.54183333	     -3.08376117	      3.67878678	     -1.19651161	     -0.70350009	      1.04800888	      0.31721864	     24.53704487	      1.62503943	     -1.36384415	     -9.66733133	      1.99876407	     -7.07609559	      0.23329200	     -5.85614798	      5.56569018	     -8.25954295	    -26.00848206	      8.57646492	     14.31862390	      0.30394690	      8.09284863	     -2.61273611	     -2.25101092
      0.54600000	     -3.00185605	      3.54310225	     -1.20284509	     -0.69746560	      1.04795935	      0.31760767	     24.32943880	      1.80026850	     -1.19642521	    -10.04922345	      1.58953684	     -7.45133364	      0.26457122	     -5.47247555	      5.19055235	     -8.38970713	    -27.52977796	      7.90468724	     14.79491656	      0.44690254	      8.04662960	     -2.42979469	     -2.24982766
      0.55016667	     -2.91729824	      3.38575106	     -1.20563757	     -0.69144681	      1.04792490	      0.31798980	     24.11718332	      1.99163239	     -1.06800401	    -10.43216779	      1.19823141	     -7.80560653	      0.29587267	     -5.05618641	      4.78521826	     -8.48935985	    -29.10559549	      7.18901661	     15.24260172	      0.59758371	      8.00066427	     -2.23364311	     -2.24603264
      0.55433333	     -2.82040876	      3.18645206	     -1.23344114	     -0.68537437	      1.04790771	      0.31835729	     23.89026221	      2.22524318	     -1.01974656	    -10.83052610	      1.02870340	     -7.84609026	      0.30768268	     -4.62766731	      4.33648100	     -8.61982620	    -30.74764204	      6.78782232	     15.38462318	      0.64765502	      7.91564711	     -2.10123910	     -2.24589417
      0.55850000	     -2.78658339	      2.98773695	     -1.20378917	     -0.67939271	      1.04781483	      0.31888155	     23.70261517	      2.46189101	     -0.80555848	    -11.14625223	      0.35827241	     -8.76183974	      0.38612789	     -4.08446255	      3.85163815	     -8.62838677	    -32.40739904	      5.73658530	     16.10255009	      1.07236468	      8.03706931	     -1.85546525	     -2.21602047
      0.56266667	     -2.69813381	      2.78286691	     -1.21144750	     -0.67347709	      1.04780152	      0.31907630	     23.50581791	      2.66961417	     -0.91780557	    -11.57662699	      0.14335135	     -8.86957324	      0.43075573	     -3.57374490	      3.40992054	     -8.61666051	    -34.09804663	      4.90974543	     16.41915914	      1.27905045	      7.95053935	     -1.54800034	     -2.21335160
      0.56683333	     -2.61257880	      2.55057451	     -1.20488775	     -0.66760090	      1.04779540	      0.31930280	     23.29533082	      2.90183790	     -0.98584144	    -11.97504645	     -0.07574081	     -8.99944341	      0.47059341	     -3.02694630	      2.93031336	     -8.56179211	    -35.83266420	      4.10398285	     16.69720884	      1.46980852	      7.86614051	     -1.22828730	     -2.21394482
      0.57100000	     -2.53026711	      2.33272796	     -1.20867838	     -0.66189771	      1.04776809	      0.31949410	     23.09262263	      3.11249942	     -0.96440413	    -12.36873603	     -0.22709947	     -9.04317079	      0.49500199	     -2.43692607	      2.47807988	     -8.45313852	    -37.60986253	      3.43394743	     16.88130102	      1.58083062	      7.72676655	     -0.87454831	     -2.22531689
      0.57516667	     -2.44581439	      2.06505751	     -1.19010884	     -0.65611475	      1.04778489	      0.31966366	     22.87117947	      3.36526275	     -1.07587476	    -12.74283283	     -0.37532719	     -9.11585971	      0.51994123	     -1.83273137	      1.97062130	     -8.31852558	    -39.38945093	      2.64188416	     17.07935581	      1.69456763	      7.63971544	     -0.51909499	     -2.21838507
